<?xml version="1.0" encoding="UTF-8" standalone="no"?>
<svg width="817px" height="106px" viewBox="0 0 817 106" version="1.1" xmlns="http://www.w3.org/2000/svg" xmlns:xlink="http://www.w3.org/1999/xlink">
    <!-- Generator: Sketch 39.1 (31720) - http://www.bohemiancoding.com/sketch -->
    <title>Slice 1</title>
    <desc>Created with Sketch.</desc>
    <defs></defs>
    <g id="Page-1" stroke="none" stroke-width="1" fill="none" fill-rule="evenodd">
        <path d="M6.16,52.98 C6.16,45.379962 7.2366559,38.413365 9.39,32.08 C11.5433441,25.746635 14.7099791,20.3316891 18.89,15.835 C23.0700209,11.3383108 28.1999696,7.823346 34.28,5.29 C40.3600304,2.756654 47.3266274,1.49 55.18,1.49 C57.8400133,1.49 60.3733213,1.5533327 62.78,1.68 C65.1866787,1.8066673 67.561655,2.0599981 69.905,2.44 C72.2483451,2.8200019 74.6549877,3.3899962 77.125,4.15 C79.5950124,4.9100038 82.3499848,5.8599943 85.39,7 C85.6433346,11.3066882 85.2633384,15.5816454 84.25,19.825 C83.2366616,24.0683545 81.6533441,28.2166464 79.5,32.27 C77.3466559,31.5099962 75.4150086,30.9083356 73.705,30.465 C71.9949915,30.0216645 70.3800076,29.6733346 68.86,29.42 C67.3399924,29.1666654 65.851674,29.0083336 64.395,28.945 C62.9383261,28.8816663 61.3866749,28.85 59.74,28.85 C53.6599696,28.85 48.62502,30.6549819 44.635,34.265 C40.6449801,37.875018 38.65,44.113289 38.65,52.98 C38.65,57.6666901 39.2516607,61.5616511 40.455,64.665 C41.6583394,67.7683488 43.2416569,70.2066578 45.205,71.98 C47.1683432,73.7533422 49.4483204,75.0199962 52.045,75.78 C54.6416797,76.5400038 57.3966521,76.92 60.31,76.92 C63.9833517,76.92 67.1816531,76.6033365 69.905,75.97 C72.628347,75.3366635 75.8266483,74.3233403 79.5,72.93 C81.6533441,76.3500171 83.363327,80.1816455 84.63,84.425 C85.896673,88.6683546 86.53,93.5133061 86.53,98.96 C80.7033042,101.240011 75.3833574,102.696663 70.57,103.33 C65.7566426,103.963336 60.9433574,104.28 56.13,104.28 C48.0232928,104.28 40.8666977,103.076679 34.66,100.67 C28.4533023,98.2633213 23.2283546,94.8116892 18.985,90.315 C14.7416455,85.8183108 11.5433441,80.4350313 9.39,74.165 C7.2366559,67.8949687 6.16,60.8333726 6.16,52.98 L6.16,52.98 Z M155.63,65.71 L127.51,65.71 L127.51,101.81 C124.21665,102.316669 121.240013,102.696665 118.58,102.95 C115.919987,103.203335 113.513344,103.33 111.36,103.33 C109.206656,103.33 106.800013,103.203335 104.14,102.95 C101.479987,102.696665 98.5666825,102.316669 95.4,101.81 L95.4,3.77 C98.1866806,3.1366635 100.941653,2.6933346 103.665,2.44 C106.388347,2.1866654 109.016654,2.06 111.55,2.06 C113.956679,2.06 116.553319,2.1866654 119.34,2.44 C122.126681,2.6933346 124.849987,3.1366635 127.51,3.77 L127.51,37.21 L155.63,37.21 L155.63,3.77 C158.416681,3.1366635 161.171653,2.6933346 163.895,2.44 C166.618347,2.1866654 169.246654,2.06 171.78,2.06 C174.186679,2.06 176.783319,2.1866654 179.57,2.44 C182.356681,2.6933346 185.079987,3.1366635 187.74,3.77 L187.74,101.81 C184.44665,102.316669 181.470013,102.696665 178.81,102.95 C176.149987,103.203335 173.743344,103.33 171.59,103.33 C169.436656,103.33 167.030013,103.203335 164.37,102.95 C161.709987,102.696665 158.796683,102.316669 155.63,101.81 L155.63,65.71 Z M199.27,53.36 C199.27,45.6332947 200.31499,38.5716987 202.405,32.175 C204.49501,25.7783013 207.598313,20.3000228 211.715,15.74 C215.831687,11.1799772 220.92997,7.66501235 227.01,5.195 C233.09003,2.72498765 240.11996,1.49 248.1,1.49 C256.206707,1.49 263.29997,2.72498765 269.38,5.195 C275.46003,7.66501235 280.558313,11.1799772 284.675,15.74 C288.791687,20.3000228 291.89499,25.7783013 293.985,32.175 C296.07501,38.5716987 297.12,45.6332947 297.12,53.36 C297.12,60.960038 296.07501,67.8949687 293.985,74.165 C291.89499,80.4350313 288.791687,85.8183108 284.675,90.315 C280.558313,94.8116892 275.46003,98.2633213 269.38,100.67 C263.29997,103.076679 256.206707,104.28 248.1,104.28 C240.11996,104.28 233.09003,103.076679 227.01,100.67 C220.92997,98.2633213 215.831687,94.8116892 211.715,90.315 C207.598313,85.8183108 204.49501,80.4350313 202.405,74.165 C200.31499,67.8949687 199.27,60.960038 199.27,53.36 L199.27,53.36 Z M264.63,53.36 C264.63,45.2532928 263.268347,39.0466882 260.545,34.74 C257.821653,30.4333118 253.673361,28.28 248.1,28.28 C242.526639,28.28 238.410013,30.4333118 235.75,34.74 C233.089987,39.0466882 231.76,45.2532928 231.76,53.36 C231.76,61.3400399 233.089987,67.4833118 235.75,71.79 C238.410013,76.0966882 242.526639,78.25 248.1,78.25 C253.673361,78.25 257.821653,76.0966882 260.545,71.79 C263.268347,67.4833118 264.63,61.3400399 264.63,53.36 L264.63,53.36 Z M340.76,101.81 C337.46665,102.316669 334.490013,102.696665 331.83,102.95 C329.169987,103.203335 326.763344,103.33 324.61,103.33 C322.456656,103.33 320.050013,103.203335 317.39,102.95 C314.729987,102.696665 311.816683,102.316669 308.65,101.81 L308.65,3.77 C311.436681,3.1366635 314.191653,2.6933346 316.915,2.44 C319.638347,2.1866654 322.266654,2.06 324.8,2.06 C327.206679,2.06 329.803319,2.1866654 332.59,2.44 C335.376681,2.6933346 338.099987,3.1366635 340.76,3.77 L340.76,101.81 Z M352.29,52.98 C352.29,45.379962 353.366656,38.413365 355.52,32.08 C357.673344,25.746635 360.839979,20.3316891 365.02,15.835 C369.200021,11.3383108 374.32997,7.823346 380.41,5.29 C386.49003,2.756654 393.456627,1.49 401.31,1.49 C403.970013,1.49 406.503321,1.5533327 408.91,1.68 C411.316679,1.8066673 413.691655,2.0599981 416.035,2.44 C418.378345,2.8200019 420.784988,3.3899962 423.255,4.15 C425.725012,4.9100038 428.479985,5.8599943 431.52,7 C431.773335,11.3066882 431.393338,15.5816454 430.38,19.825 C429.366662,24.0683545 427.783344,28.2166464 425.63,32.27 C423.476656,31.5099962 421.545009,30.9083356 419.835,30.465 C418.124991,30.0216645 416.510008,29.6733346 414.99,29.42 C413.469992,29.1666654 411.981674,29.0083336 410.525,28.945 C409.068326,28.8816663 407.516675,28.85 405.87,28.85 C399.78997,28.85 394.75502,30.6549819 390.765,34.265 C386.77498,37.875018 384.78,44.113289 384.78,52.98 C384.78,57.6666901 385.381661,61.5616511 386.585,64.665 C387.788339,67.7683488 389.371657,70.2066578 391.335,71.98 C393.298343,73.7533422 395.57832,75.0199962 398.175,75.78 C400.77168,76.5400038 403.526652,76.92 406.44,76.92 C410.113352,76.92 413.311653,76.6033365 416.035,75.97 C418.758347,75.3366635 421.956648,74.3233403 425.63,72.93 C427.783344,76.3500171 429.493327,80.1816455 430.76,84.425 C432.026673,88.6683546 432.66,93.5133061 432.66,98.96 C426.833304,101.240011 421.513357,102.696663 416.7,103.33 C411.886643,103.963336 407.073357,104.28 402.26,104.28 C394.153293,104.28 386.996698,103.076679 380.79,100.67 C374.583302,98.2633213 369.358355,94.8116892 365.115,90.315 C360.871645,85.8183108 357.673344,80.4350313 355.52,74.165 C353.366656,67.8949687 352.29,60.8333726 352.29,52.98 L352.29,52.98 Z M466.23,63.05 C467.62334,68.2433593 470.061649,71.9166559 473.545,74.07 C477.028351,76.2233441 481.619972,77.3 487.32,77.3 C490.993352,77.3 495.109977,76.8566711 499.67,75.97 C504.230023,75.0833289 508.726645,73.7533422 513.16,71.98 C514.933342,75.2733498 516.484993,79.1999772 517.815,83.76 C519.145007,88.3200228 519.873333,93.0699753 520,98.01 C508.72661,102.190021 497.200059,104.28 485.42,104.28 C476.299954,104.28 468.478366,103.013346 461.955,100.48 C455.431634,97.946654 450.111687,94.4316892 445.995,89.935 C441.878313,85.4383108 438.838343,80.0866977 436.875,73.88 C434.911657,67.6733023 433.93,60.8967034 433.93,53.55 C433.93,46.3299639 434.943323,39.553365 436.97,33.22 C438.996677,26.886635 442.036646,21.3766901 446.09,16.69 C450.143354,12.0033099 455.20997,8.29834695 461.29,5.575 C467.37003,2.85165305 474.463293,1.49 482.57,1.49 C489.283367,1.49 495.268307,2.6299886 500.525,4.91 C505.781693,7.1900114 510.246648,10.3249801 513.92,14.315 C517.593352,18.3050199 520.411657,23.1183051 522.375,28.755 C524.338343,34.3916949 525.32,40.5033004 525.32,47.09 C525.32,50.5100171 525.161668,53.581653 524.845,56.305 C524.528332,59.028347 524.243335,61.2766578 523.99,63.05 L466.23,63.05 Z M481.43,25.62 C477.376646,25.62 473.893348,26.886654 470.98,29.42 C468.066652,31.953346 466.356669,35.8799734 465.85,41.2 L496.25,41.2 C495.996665,36.7666445 494.635012,33.0616816 492.165,30.085 C489.694988,27.1083185 486.11669,25.62 481.43,25.62 L481.43,25.62 Z M583.21,40.44 C587.010019,41.4533384 590.461651,42.6883261 593.565,44.145 C596.668349,45.6016739 599.328322,47.4699886 601.545,49.75 C603.761678,52.0300114 605.503327,54.8166502 606.77,58.11 C608.036673,61.4033498 608.67,65.3933099 608.67,70.08 C608.67,74.8933574 607.688343,79.3899791 605.725,83.57 C603.761657,87.7500209 600.848353,91.3599848 596.985,94.4 C593.121647,97.4400152 588.371695,99.8466578 582.735,101.62 C577.098305,103.393342 570.606703,104.28 563.26,104.28 C557.17997,104.28 551.543359,103.836671 546.35,102.95 C541.156641,102.063329 535.646696,100.543344 529.82,98.39 C530.453336,89.7766236 532.796646,81.036711 536.85,72.17 C540.903354,74.0700095 545.146644,75.4949952 549.58,76.445 C554.013355,77.3950047 558.446645,77.87 562.88,77.87 C564.400008,77.87 565.983325,77.8066673 567.63,77.68 C569.276675,77.5533327 570.733327,77.2683356 572,76.825 C573.266673,76.3816645 574.311663,75.7800038 575.135,75.02 C575.958337,74.2599962 576.37,73.246673 576.37,71.98 C576.37,70.3333251 575.546675,69.0983375 573.9,68.275 C572.253325,67.4516625 570.353344,66.7233365 568.2,66.09 L555.28,62.48 C548.566633,60.5799905 542.993356,57.3500228 538.56,52.79 C534.126644,48.2299772 531.91,42.0233726 531.91,34.17 C531.91,29.2299753 532.923323,24.7333536 534.95,20.68 C536.976677,16.6266464 539.826648,13.1750143 543.5,10.325 C547.173352,7.47498575 551.511642,5.2900076 556.515,3.77 C561.518358,2.2499924 567.05997,1.49 573.14,1.49 C577.953357,1.49 583.209972,1.9966616 588.91,3.01 C594.610028,4.0233384 600.246639,5.4799905 605.82,7.38 C605.566665,11.4333536 604.74334,15.7716436 603.35,20.395 C601.95666,25.0183564 600.373342,29.1033156 598.6,32.65 C595.179983,31.2566597 591.063357,29.9900057 586.25,28.85 C581.436643,27.7099943 577.003354,27.14 572.95,27.14 C566.996637,27.14 564.02,28.7866502 564.02,32.08 C564.02,33.4733403 564.71666,34.5499962 566.11,35.31 C567.50334,36.0700038 569.086658,36.7033308 570.86,37.21 L583.21,40.44 Z M637.68,67.99 C640.213346,67.99 642.809987,68.1166654 645.47,68.37 C648.130013,68.6233346 650.916652,68.9399981 653.83,69.32 C654.336669,72.2333479 654.716665,75.0199867 654.97,77.68 C655.223335,80.3400133 655.35,82.936654 655.35,85.47 C655.35,88.003346 655.223335,90.5999867 654.97,93.26 C654.716665,95.9200133 654.336669,98.7066521 653.83,101.62 C650.916652,102.126669 648.130013,102.506665 645.47,102.76 C642.809987,103.013335 640.213346,103.14 637.68,103.14 C635.146654,103.14 632.550013,103.013335 629.89,102.76 C627.229987,102.506665 624.443348,102.126669 621.53,101.62 C621.023331,98.7066521 620.643335,95.9200133 620.39,93.26 C620.136665,90.5999867 620.01,88.003346 620.01,85.47 C620.01,82.936654 620.136665,80.3400133 620.39,77.68 C620.643335,75.0199867 621.023331,72.2333479 621.53,69.32 C624.443348,68.9399981 627.229987,68.6233346 629.89,68.37 C632.550013,68.1166654 635.146654,67.99 637.68,67.99 L637.68,67.99 Z M672.2,30.56 C671.566664,28.026654 671.155001,25.6516777 670.965,23.435 C670.774999,21.2183223 670.68,19.0966768 670.68,17.07 C670.68,15.0433232 670.774999,12.9533441 670.965,10.8 C671.155001,8.6466559 671.566664,6.303346 672.2,3.77 L723.31,3.77 L723.31,64.19 C723.31,71.4100361 722.26501,77.5849743 720.175,82.715 C718.08499,87.8450257 715.171685,91.9933175 711.435,95.16 C707.698315,98.3266825 703.328358,100.638326 698.325,102.095 C693.321642,103.551674 687.906696,104.28 682.08,104.28 C680.17999,104.28 677.488351,104.058336 674.005,103.615 C670.521649,103.171664 666.880019,102.316673 663.08,101.05 C662.953333,100.036662 662.858334,99.0550047 662.795,98.105 C662.731666,97.1549953 662.7,96.1733384 662.7,95.16 C662.7,91.8666502 663.016663,88.5733498 663.65,85.28 C664.283336,81.9866502 665.169994,78.5666844 666.31,75.02 C666.816669,75.1466673 667.576662,75.304999 668.59,75.495 C669.603338,75.685001 670.711661,75.8433327 671.915,75.97 C673.118339,76.0966673 674.258328,76.2233327 675.335,76.35 C676.411672,76.4766673 677.266663,76.54 677.9,76.54 C679.29334,76.54 680.781659,76.445001 682.365,76.255 C683.948341,76.064999 685.404993,75.4950048 686.735,74.545 C688.065007,73.5949953 689.141663,72.1700095 689.965,70.27 C690.788337,68.3699905 691.2,65.7100171 691.2,62.29 L691.2,30.56 L672.2,30.56 Z M785.38,40.44 C789.180019,41.4533384 792.631651,42.6883261 795.735,44.145 C798.838349,45.6016739 801.498322,47.4699886 803.715,49.75 C805.931678,52.0300114 807.673327,54.8166502 808.94,58.11 C810.206673,61.4033498 810.84,65.3933099 810.84,70.08 C810.84,74.8933574 809.858343,79.3899791 807.895,83.57 C805.931657,87.7500209 803.018353,91.3599848 799.155,94.4 C795.291647,97.4400152 790.541695,99.8466578 784.905,101.62 C779.268305,103.393342 772.776703,104.28 765.43,104.28 C759.34997,104.28 753.713359,103.836671 748.52,102.95 C743.326641,102.063329 737.816696,100.543344 731.99,98.39 C732.623336,89.7766236 734.966646,81.036711 739.02,72.17 C743.073354,74.0700095 747.316644,75.4949952 751.75,76.445 C756.183355,77.3950047 760.616644,77.87 765.05,77.87 C766.570008,77.87 768.153325,77.8066673 769.8,77.68 C771.446675,77.5533327 772.903327,77.2683356 774.17,76.825 C775.436673,76.3816645 776.481663,75.7800038 777.305,75.02 C778.128337,74.2599962 778.54,73.246673 778.54,71.98 C778.54,70.3333251 777.716675,69.0983375 776.07,68.275 C774.423325,67.4516625 772.523344,66.7233365 770.37,66.09 L757.45,62.48 C750.736633,60.5799905 745.163355,57.3500228 740.73,52.79 C736.296644,48.2299772 734.08,42.0233726 734.08,34.17 C734.08,29.2299753 735.093323,24.7333536 737.12,20.68 C739.146677,16.6266464 741.996648,13.1750143 745.67,10.325 C749.343352,7.47498575 753.681642,5.2900076 758.685,3.77 C763.688358,2.2499924 769.22997,1.49 775.31,1.49 C780.123357,1.49 785.379971,1.9966616 791.08,3.01 C796.780028,4.0233384 802.416639,5.4799905 807.99,7.38 C807.736665,11.4333536 806.91334,15.7716436 805.52,20.395 C804.12666,25.0183564 802.543342,29.1033156 800.77,32.65 C797.349983,31.2566597 793.233357,29.9900057 788.42,28.85 C783.606643,27.7099943 779.173354,27.14 775.12,27.14 C769.166637,27.14 766.19,28.7866502 766.19,32.08 C766.19,33.4733403 766.88666,34.5499962 768.28,35.31 C769.67334,36.0700038 771.256658,36.7033308 773.03,37.21 L785.38,40.44 Z" id="choices.js" fill="#00BCD4"></path>
    </g>
</svg>